<svg width="20" height="20" viewBox="0 0 20 20" fill="none" xmlns="http://www.w3.org/2000/svg">
<path d="M17.999 10.2303C17.9907 10.4871 17.893 10.7417 17.7041 10.9442L11.1025 18.0213C10.6881 18.4652 9.99198 18.4892 9.54785 18.0751C9.10368 17.6606 9.07971 16.9636 9.49414 16.5194L14.3779 11.285L2.875 11.285C2.2675 11.285 1.77541 10.7929 1.77539 10.1854C1.77539 9.57789 2.26749 9.0858 2.875 9.0858L14.3789 9.0858L9.49414 3.85045C9.07975 3.4063 9.10381 2.71022 9.54785 2.29576C9.99203 1.88134 10.6881 1.90534 11.1025 2.34947L17.7051 9.42564C17.8938 9.62804 17.9906 9.88299 17.999 10.1395C17.9993 10.145 17.9998 10.1506 18 10.1561V10.2147C17.9998 10.2199 17.9993 10.2251 17.999 10.2303Z" fill="black" fill-opacity="0.9"/>
</svg>
