<svg width="21" height="21" viewBox="0 0 21 21" fill="none" xmlns="http://www.w3.org/2000/svg">
<path d="M2.00098 9.76967C2.00934 9.51293 2.10696 9.25835 2.2959 9.0558L8.89746 1.97865C9.31185 1.53476 10.008 1.5108 10.4521 1.92494C10.8963 2.33939 10.9203 3.03642 10.5059 3.48061L5.62207 8.71498L17.125 8.71498C17.7325 8.71498 18.2246 9.20709 18.2246 9.81459C18.2246 10.4221 17.7325 10.9142 17.125 10.9142H5.62109L10.5059 16.1496C10.9202 16.5937 10.8962 17.2898 10.4521 17.7042C10.008 18.1187 9.31191 18.0947 8.89746 17.6505L2.29492 10.5744C2.10618 10.372 2.00945 10.117 2.00098 9.86049C2.0007 9.85496 2.00019 9.84943 2 9.84389V9.7853C2.00018 9.78008 2.00072 9.77488 2.00098 9.76967Z" fill="black" fill-opacity="0.9"/>
</svg>
