<svg width="20" height="20" viewBox="0 0 20 20" fill="none" xmlns="http://www.w3.org/2000/svg">
<path d="M17.5001 11.5C18.0524 11.5 18.5001 11.9477 18.5001 12.5V15.833C18.5001 16.5403 18.219 17.2187 17.7189 17.7188C17.2188 18.2188 16.5404 18.5 15.8331 18.5H4.16711C3.45987 18.5 2.78147 18.2188 2.28137 17.7188C1.78128 17.2187 1.50012 16.5403 1.50012 15.833V12.5C1.50012 11.9477 1.94784 11.5 2.50012 11.5C3.05241 11.5 3.50012 11.9477 3.50012 12.5V15.833C3.50012 16.0098 3.57041 16.1797 3.69543 16.3047C3.82046 16.4297 3.9903 16.5 4.16711 16.5H15.8331C16.0099 16.5 16.1798 16.4297 16.3048 16.3047C16.4298 16.1797 16.5001 16.0098 16.5001 15.833V12.5C16.5001 11.9477 16.9478 11.5 17.5001 11.5ZM10.0001 1.5C10.5524 1.50003 11.0001 1.94774 11.0001 2.5V10.084L13.4591 7.62598C13.8495 7.23565 14.4826 7.23596 14.8732 7.62598C15.2637 8.01649 15.2637 8.64951 14.8732 9.04004L10.7072 13.207C10.6235 13.2907 10.528 13.3546 10.4269 13.4023C10.4112 13.4098 10.3961 13.4182 10.38 13.4248C10.3627 13.4319 10.3449 13.4373 10.3273 13.4434C10.3162 13.4472 10.3053 13.4516 10.2941 13.4551C10.2715 13.462 10.2486 13.4674 10.2257 13.4727C10.2159 13.4749 10.2063 13.4775 10.1964 13.4795C10.185 13.4818 10.1737 13.4835 10.1622 13.4854C10.1094 13.494 10.0554 13.5 10.0001 13.5L9.89758 13.4951C9.87378 13.4927 9.85055 13.4875 9.82727 13.4834C9.82015 13.4822 9.81288 13.4819 9.80579 13.4805C9.78694 13.4768 9.76857 13.4716 9.75012 13.4668C9.73713 13.4634 9.72393 13.4609 9.71106 13.457C9.66104 13.4419 9.61291 13.4228 9.56653 13.4004C9.52674 13.3812 9.4878 13.3597 9.45032 13.335C9.43453 13.3245 9.41957 13.313 9.40442 13.3018C9.36595 13.2731 9.32803 13.2419 9.29309 13.207L5.1261 9.04004C4.73591 8.64949 4.73569 8.01639 5.1261 7.62598C5.51651 7.23559 6.14962 7.2358 6.54016 7.62598L9.00012 10.0859V2.5C9.00012 1.94772 9.44784 1.5 10.0001 1.5Z" fill="black" fill-opacity="0.9"/>
</svg>
